# xmcd
#
# Track frame offsets:
#	150
#	17162
#	34695
#	52708
#	70018
#	88364
#	112418
#	136330
#	151915
#	171910
#	187437
#	202145
#
# Disc length: 2923 seconds
#
# Revision: 1
# Processed by: cddbd v1.5.2PL0 Copyright (c) Steve Scherf et al.
# Submitted via: audiograbber 1.83.01
#
DISCID=b00b690c
DTITLE=Sally King - Solid Flesh and Blood
DYEAR=2012
DGENRE=Rock Ballad
TTITLE0=Solid Flesh and Blood
TTITLE1=I Feel Like A Fool
TTITLE2=The Goddess Is Dancing
TTITLE3=Never Love Again
TTITLE4=Sit Down Beside Me
TTITLE5=Love Took Its' Time
TTITLE6=You Are The One
TTITLE7=No Inspiration
TTITLE8=Freak Flag
TTITLE9=The Pain
TTITLE10=Into The Night
TTITLE11=Love That's Lasting
EXTD=Written and Performed by Sally King\nSally King on guitar.\nDavid Green on b
EXTD=ass.
EXTT0=
EXTT1=
EXTT2=
EXTT3=
EXTT4=
EXTT5=
EXTT6=
EXTT7=
EXTT8=
EXTT9=
EXTT10=
EXTT11=
PLAYORDER=
